<svg xmlns="http://www.w3.org/2000/svg" version="1.1" xmlns:xlink="http://www.w3.org/1999/xlink" xmlns:svgjs="http://svgjs.com/svgjs" width="1440" height="560" preserveAspectRatio="none" viewBox="0 0 1440 560"><g mask="url(&quot;#SvgjsMask1034&quot;)" fill="none"><rect width="1440" height="560" x="0" y="0" fill="url(#SvgjsLinearGradient1035)"></rect><path d="M 0,191 C 28.8,214.6 86.4,307.2 144,309 C 201.6,310.8 230.4,173.8 288,200 C 345.6,226.2 374.4,472.4 432,440 C 489.6,407.6 518.4,34.6 576,38 C 633.6,41.4 662.4,423.2 720,457 C 777.6,490.8 806.4,237 864,207 C 921.6,177 950.4,328.2 1008,307 C 1065.6,285.8 1094.4,68.4 1152,101 C 1209.6,133.6 1238.4,477.8 1296,470 C 1353.6,462.2 1411.2,143.6 1440,62L1440 560L0 560z" fill="#33b9c6"></path><path d="M 0,26 C 57.6,128.6 172.8,542.2 288,539 C 403.2,535.8 460.8,14.8 576,10 C 691.2,5.2 748.8,507.4 864,515 C 979.2,522.6 1036.8,67.2 1152,48 C 1267.2,28.8 1382.4,344.8 1440,419L1440 560L0 560z" fill="rgba(112, 126, 24, 1)"></path><path d="M 0,449 C 48,359.6 144,17 240,2 C 336,-13 384,361.2 480,374 C 576,386.8 624,71 720,66 C 816,61 864,352.2 960,349 C 1056,345.8 1104,31.8 1200,50 C 1296,68.2 1392,362 1440,440L1440 560L0 560z" fill="rgba(81, 34, 171, 1)"></path></g><defs><mask id="SvgjsMask1034"><rect width="1440" height="560" fill="#ffffff"></rect></mask><linearGradient x1="15.28%" y1="-39.29%" x2="84.72%" y2="139.29%" gradientUnits="userSpaceOnUse" id="SvgjsLinearGradient1035"><stop stop-color="#0e2a47" offset="0"></stop><stop stop-color="rgba(0, 69, 158, 0.3)" offset="1"></stop></linearGradient></defs></svg>