<svg xmlns="http://www.w3.org/2000/svg" version="1.1" xmlns:xlink="http://www.w3.org/1999/xlink" xmlns:svgjs="http://svgjs.com/svgjs" width="1440" height="560" preserveAspectRatio="none" viewBox="0 0 1440 560"><g mask="url(&quot;#SvgjsMask1000&quot;)" fill="none"><rect width="1440" height="560" x="0" y="0" fill="#0e2a47"></rect><path d="M0,591.192C109.08,594.443,168.368,462.974,254.334,395.752C330.76,335.99,437.583,306.491,477.29,217.971C516.943,129.57,482.398,28.262,461.626,-66.372C442.216,-154.805,419.711,-243.884,360.822,-312.654C301.739,-381.651,216.517,-416.607,132.384,-450.857C39.632,-488.615,-53.581,-531.636,-153.252,-521.928C-264.075,-511.134,-377.429,-474.201,-454.365,-393.709C-532.702,-311.751,-588.865,-194.737,-573.328,-82.432C-558.328,25.994,-439.449,82.487,-376.132,171.774C-327.533,240.306,-300.867,318.331,-244.775,380.878C-171.47,462.62,-109.748,587.921,0,591.192" fill="#0b2239"></path><path d="M1440 953.509C1512.398 943.627 1549.3319999999999 863.259 1603.084 813.764 1646.6 773.694 1695.867 741.559 1725.671 690.461 1757.762 635.442 1791.0520000000001 573.828 1779.5729999999999 511.177 1768.183 449.012 1713.171 406.206 1665.903 364.254 1623.655 326.75800000000004 1571.684 308.26099999999997 1521.571 282.194 1457.828 249.03699999999998 1402.839 182.23700000000002 1331.439 190.274 1259.789 198.339 1214.875 269.592 1165.633 322.26 1114.541 376.906 1059.209 430.238 1039.588 502.429 1018.645 579.484 1013.338 667.431 1052.98 736.746 1091.834 804.683 1177.271 824.3199999999999 1245.554 862.5640000000001 1309.274 898.2529999999999 1367.637 963.386 1440 953.509" fill="#113255"></path></g><defs><mask id="SvgjsMask1000"><rect width="1440" height="560" fill="#ffffff"></rect></mask></defs></svg>